<svg xmlns="http://www.w3.org/2000/svg" xmlns:xlink="http://www.w3.org/1999/xlink" contentStyleType="text/css" data-diagram-type="SEQUENCE" height="1880px" preserveAspectRatio="none" style="width:597px;height:1880px;background:#FFFFFF;" version="1.1" viewBox="0 0 597 1880" width="597px" zoomAndPan="magnify"><defs/><g><rect fill="none" height="161.4688" style="stroke:#000000;stroke-width:1.5;" width="505.6147" x="10" y="358.3594"/><rect fill="none" height="1105.3906" style="stroke:#000000;stroke-width:1.5;" width="505.6147" x="10" y="677.3594"/><g><title>User</title><rect fill="#000000" fill-opacity="0.00000" height="1718.4531" width="8" x="34.9551" y="81.2969"/><line style="stroke:#181818;stroke-width:0.5;stroke-dasharray:5.0,5.0;" x1="38" x2="38" y1="81.2969" y2="1799.75"/></g><g><title>Frontend</title><rect fill="#000000" fill-opacity="0.00000" height="1718.4531" width="8" x="241.1836" y="81.2969"/><line style="stroke:#181818;stroke-width:0.5;stroke-dasharray:5.0,5.0;" x1="244.6289" x2="244.6289" y1="81.2969" y2="1799.75"/></g><g><title>Backend</title><rect fill="#000000" fill-opacity="0.00000" height="1718.4531" width="8" x="464.4341" y="81.2969"/><line style="stroke:#181818;stroke-width:0.5;stroke-dasharray:5.0,5.0;" x1="468.2534" x2="468.2534" y1="81.2969" y2="1799.75"/></g><g class="participant participant-head" data-participant="User"><text fill="#000000" font-family="sans-serif" font-size="14" lengthAdjust="spacing" textLength="31.9102" x="20" y="77.9951">User</text><ellipse cx="38.9551" cy="13.5" fill="#E2E2F0" rx="8" ry="8" style="stroke:#181818;stroke-width:0.5;"/><path d="M38.9551,21.5 L38.9551,48.5 M25.9551,29.5 L51.9551,29.5 M38.9551,48.5 L25.9551,63.5 M38.9551,48.5 L51.9551,63.5" fill="none" style="stroke:#181818;stroke-width:0.5;"/></g><g class="participant participant-tail" data-participant="User"><text fill="#000000" font-family="sans-serif" font-size="14" lengthAdjust="spacing" textLength="31.9102" x="20" y="1811.7451">User</text><ellipse cx="38.9551" cy="1823.5469" fill="#E2E2F0" rx="8" ry="8" style="stroke:#181818;stroke-width:0.5;"/><path d="M38.9551,1831.5469 L38.9551,1858.5469 M25.9551,1839.5469 L51.9551,1839.5469 M38.9551,1858.5469 L25.9551,1873.5469 M38.9551,1858.5469 L51.9551,1873.5469" fill="none" style="stroke:#181818;stroke-width:0.5;"/></g><g class="participant participant-head" data-participant="Frontend"><rect fill="#E2E2F0" height="30.2969" rx="2.5" ry="2.5" style="stroke:#181818;stroke-width:0.5;" width="77.1094" x="206.6289" y="50"/><text fill="#000000" font-family="sans-serif" font-size="14" lengthAdjust="spacing" textLength="63.1094" x="213.6289" y="69.9951">Frontend</text></g><g class="participant participant-tail" data-participant="Frontend"><rect fill="#E2E2F0" height="30.2969" rx="2.5" ry="2.5" style="stroke:#181818;stroke-width:0.5;" width="77.1094" x="206.6289" y="1798.75"/><text fill="#000000" font-family="sans-serif" font-size="14" lengthAdjust="spacing" textLength="63.1094" x="213.6289" y="1818.7451">Frontend</text></g><g class="participant participant-head" data-participant="Backend"><rect fill="#E2E2F0" height="30.2969" rx="2.5" ry="2.5" style="stroke:#181818;stroke-width:0.5;" width="74.3613" x="431.2534" y="50"/><text fill="#000000" font-family="sans-serif" font-size="14" lengthAdjust="spacing" textLength="60.3613" x="438.2534" y="69.9951">Backend</text></g><g class="participant participant-tail" data-participant="Backend"><rect fill="#E2E2F0" height="30.2969" rx="2.5" ry="2.5" style="stroke:#181818;stroke-width:0.5;" width="74.3613" x="431.2534" y="1798.75"/><text fill="#000000" font-family="sans-serif" font-size="14" lengthAdjust="spacing" textLength="60.3613" x="438.2534" y="1818.7451">Backend</text></g><rect fill="#EEEEEE" height="3" style="stroke:#EEEEEE;stroke-width:1;" width="590.0205" x="0" y="111.8633"/><line style="stroke:#000000;stroke-width:1;" x1="0" x2="590.0205" y1="111.8633" y2="111.8633"/><line style="stroke:#000000;stroke-width:1;" x1="0" x2="590.0205" y1="114.8633" y2="114.8633"/><rect fill="#EEEEEE" height="23.1328" style="stroke:#000000;stroke-width:2;" width="74.8232" x="257.5986" y="101.2969"/><text fill="#000000" font-family="sans-serif" font-size="13" font-weight="bold" lengthAdjust="spacing" textLength="56.2974" x="263.5986" y="117.3638">Session</text><g class="message" data-participant-1="User" data-participant-2="Frontend"><polygon fill="#181818" points="233.1836,151.5625,243.1836,155.5625,233.1836,159.5625,237.1836,155.5625" style="stroke:#181818;stroke-width:1;"/><line style="stroke:#181818;stroke-width:1;" x1="38.9551" x2="239.1836" y1="155.5625" y2="155.5625"/><text fill="#000000" font-family="sans-serif" font-size="13" lengthAdjust="spacing" textLength="106.1899" x="45.9551" y="150.4966">Enter IP address</text></g><g class="message" data-participant-1="User" data-participant-2="Frontend"><polygon fill="#181818" points="233.1836,180.6953,243.1836,184.6953,233.1836,188.6953,237.1836,184.6953" style="stroke:#181818;stroke-width:1;"/><line style="stroke:#181818;stroke-width:1;" x1="38.9551" x2="239.1836" y1="184.6953" y2="184.6953"/><text fill="#000000" font-family="sans-serif" font-size="13" lengthAdjust="spacing" textLength="128.1465" x="45.9551" y="179.6294">Enter session name</text></g><g class="message" data-participant-1="User" data-participant-2="Frontend"><polygon fill="#181818" points="233.1836,209.8281,243.1836,213.8281,233.1836,217.8281,237.1836,213.8281" style="stroke:#181818;stroke-width:1;"/><line style="stroke:#181818;stroke-width:1;" x1="38.9551" x2="239.1836" y1="213.8281" y2="213.8281"/><text fill="#000000" font-family="sans-serif" font-size="13" lengthAdjust="spacing" textLength="150.998" x="45.9551" y="208.7622">Click "Restore Session"</text></g><g class="message" data-participant-1="Frontend" data-participant-2="User"><line style="stroke:#181818;stroke-width:1;" x1="39.9551" x2="49.9551" y1="242.9609" y2="238.9609"/><line style="stroke:#181818;stroke-width:1;" x1="39.9551" x2="49.9551" y1="242.9609" y2="246.9609"/><line style="stroke:#181818;stroke-width:1;" x1="38.9551" x2="244.1836" y1="242.9609" y2="242.9609"/><text fill="#000000" font-family="sans-serif" font-size="13" lengthAdjust="spacing" textLength="165.9214" x="55.9551" y="237.895">Fill in recent session data</text></g><g class="message" data-participant-1="User" data-participant-2="Frontend"><polygon fill="#181818" points="233.1836,268.0938,243.1836,272.0938,233.1836,276.0938,237.1836,272.0938" style="stroke:#181818;stroke-width:1;"/><line style="stroke:#181818;stroke-width:1;" x1="38.9551" x2="239.1836" y1="272.0938" y2="272.0938"/><text fill="#000000" font-family="sans-serif" font-size="13" lengthAdjust="spacing" textLength="82.3672" x="45.9551" y="267.0278">Click "Login"</text></g><g class="message" data-participant-1="Frontend" data-participant-2="Backend"><line style="stroke:#181818;stroke-width:1;" x1="466.4341" x2="456.4341" y1="301.2266" y2="297.2266"/><line style="stroke:#181818;stroke-width:1;" x1="466.4341" x2="456.4341" y1="301.2266" y2="305.2266"/><line style="stroke:#181818;stroke-width:1;" x1="245.1836" x2="467.4341" y1="301.2266" y2="301.2266"/><text fill="#000000" font-family="sans-serif" font-size="13" lengthAdjust="spacing" textLength="118.4092" x="252.1836" y="296.1606">Send session data</text></g><g class="message" data-participant-1="Backend" data-participant-2="Backend"><line style="stroke:#181818;stroke-width:1;" x1="468.4341" x2="510.4341" y1="330.3594" y2="330.3594"/><line style="stroke:#181818;stroke-width:1;" x1="510.4341" x2="510.4341" y1="330.3594" y2="343.3594"/><line style="stroke:#181818;stroke-width:1;" x1="469.4341" x2="510.4341" y1="343.3594" y2="343.3594"/><polygon fill="#181818" points="479.4341,339.3594,469.4341,343.3594,479.4341,347.3594,475.4341,343.3594" style="stroke:#181818;stroke-width:1;"/><text fill="#000000" font-family="sans-serif" font-size="13" lengthAdjust="spacing" textLength="107.5864" x="475.4341" y="325.2935">Connect to Mbot</text></g><path d="M10,358.3594 L74.4429,358.3594 L74.4429,365.4922 L64.4429,375.4922 L10,375.4922 L10,358.3594" fill="#EEEEEE" style="stroke:#000000;stroke-width:1.5;"/><rect fill="none" height="161.4688" style="stroke:#000000;stroke-width:1.5;" width="505.6147" x="10" y="358.3594"/><text fill="#000000" font-family="sans-serif" font-size="13" font-weight="bold" lengthAdjust="spacing" textLength="19.4429" x="25" y="371.4263">alt</text><text fill="#000000" font-family="sans-serif" font-size="11" font-weight="bold" lengthAdjust="spacing" textLength="290.4526" x="89.4429" y="370.5698">[Session data valid and connection successful]</text><g class="message" data-participant-1="Backend" data-participant-2="Frontend"><line style="stroke:#181818;stroke-width:1;" x1="246.1836" x2="256.1836" y1="396.625" y2="392.625"/><line style="stroke:#181818;stroke-width:1;" x1="246.1836" x2="256.1836" y1="396.625" y2="400.625"/><line style="stroke:#181818;stroke-width:1;stroke-dasharray:2.0,2.0;" x1="245.1836" x2="467.4341" y1="396.625" y2="396.625"/><text fill="#000000" font-family="sans-serif" font-size="13" lengthAdjust="spacing" textLength="144.9678" x="262.1836" y="391.5591">Connection successful</text></g><g class="message" data-participant-1="Frontend" data-participant-2="Frontend"><line style="stroke:#181818;stroke-width:1;" x1="245.1836" x2="287.1836" y1="425.7578" y2="425.7578"/><line style="stroke:#181818;stroke-width:1;" x1="287.1836" x2="287.1836" y1="425.7578" y2="438.7578"/><line style="stroke:#181818;stroke-width:1;" x1="246.1836" x2="287.1836" y1="438.7578" y2="438.7578"/><polygon fill="#181818" points="256.1836,434.7578,246.1836,438.7578,256.1836,442.7578,252.1836,438.7578" style="stroke:#181818;stroke-width:1;"/><text fill="#000000" font-family="sans-serif" font-size="13" lengthAdjust="spacing" textLength="162.1445" x="252.1836" y="420.6919">Redirect to control mode</text></g><line style="stroke:#000000;stroke-width:1;stroke-dasharray:2.0,2.0;" x1="10" x2="515.6147" y1="447.7578" y2="447.7578"/><text fill="#000000" font-family="sans-serif" font-size="11" font-weight="bold" lengthAdjust="spacing" textLength="262.6304" x="15" y="457.9683">[Session data invalid or connection failed]</text><g class="message" data-participant-1="Backend" data-participant-2="Frontend"><line style="stroke:#181818;stroke-width:1;" x1="246.1836" x2="256.1836" y1="482.6953" y2="478.6953"/><line style="stroke:#181818;stroke-width:1;" x1="246.1836" x2="256.1836" y1="482.6953" y2="486.6953"/><line style="stroke:#181818;stroke-width:1;stroke-dasharray:2.0,2.0;" x1="245.1836" x2="467.4341" y1="482.6953" y2="482.6953"/><text fill="#000000" font-family="sans-serif" font-size="13" lengthAdjust="spacing" textLength="113.7056" x="262.1836" y="477.6294">Connection failed</text></g><g class="message" data-participant-1="Frontend" data-participant-2="User"><polygon fill="#181818" points="49.9551,507.8281,39.9551,511.8281,49.9551,515.8281,45.9551,511.8281" style="stroke:#181818;stroke-width:1;"/><line style="stroke:#181818;stroke-width:1;" x1="43.9551" x2="244.1836" y1="511.8281" y2="511.8281"/><text fill="#000000" font-family="sans-serif" font-size="13" lengthAdjust="spacing" textLength="164.874" x="55.9551" y="506.7622">Show "Connection failed"</text></g><rect fill="#EEEEEE" height="3" style="stroke:#EEEEEE;stroke-width:1;" width="590.0205" x="0" y="547.3945"/><line style="stroke:#000000;stroke-width:1;" x1="0" x2="590.0205" y1="547.3945" y2="547.3945"/><line style="stroke:#000000;stroke-width:1;" x1="0" x2="590.0205" y1="550.3945" y2="550.3945"/><rect fill="#EEEEEE" height="23.1328" style="stroke:#000000;stroke-width:2;" width="131.0571" x="229.4817" y="536.8281"/><text fill="#000000" font-family="sans-serif" font-size="13" font-weight="bold" lengthAdjust="spacing" textLength="112.5313" x="235.4817" y="552.895">Mode Selection</text><g class="message" data-participant-1="User" data-participant-2="Frontend"><polygon fill="#181818" points="233.1836,587.0938,243.1836,591.0938,233.1836,595.0938,237.1836,591.0938" style="stroke:#181818;stroke-width:1;"/><line style="stroke:#181818;stroke-width:1;" x1="38.9551" x2="239.1836" y1="591.0938" y2="591.0938"/><text fill="#000000" font-family="sans-serif" font-size="13" lengthAdjust="spacing" textLength="81.104" x="45.9551" y="586.0278">Select mode</text></g><g class="message" data-participant-1="Frontend" data-participant-2="Backend"><line style="stroke:#181818;stroke-width:1;" x1="466.4341" x2="456.4341" y1="620.2266" y2="616.2266"/><line style="stroke:#181818;stroke-width:1;" x1="466.4341" x2="456.4341" y1="620.2266" y2="624.2266"/><line style="stroke:#181818;stroke-width:1;" x1="245.1836" x2="467.4341" y1="620.2266" y2="620.2266"/><text fill="#000000" font-family="sans-serif" font-size="13" lengthAdjust="spacing" textLength="90.7715" x="252.1836" y="615.1606">Change mode</text></g><g class="message" data-participant-1="Frontend" data-participant-2="Frontend"><line style="stroke:#181818;stroke-width:1;" x1="245.1836" x2="287.1836" y1="649.3594" y2="649.3594"/><line style="stroke:#181818;stroke-width:1;" x1="287.1836" x2="287.1836" y1="649.3594" y2="662.3594"/><line style="stroke:#181818;stroke-width:1;" x1="246.1836" x2="287.1836" y1="662.3594" y2="662.3594"/><polygon fill="#181818" points="256.1836,658.3594,246.1836,662.3594,256.1836,666.3594,252.1836,662.3594" style="stroke:#181818;stroke-width:1;"/><text fill="#000000" font-family="sans-serif" font-size="13" lengthAdjust="spacing" textLength="171.6724" x="252.1836" y="644.2935">Redirect to selected mode</text></g><path d="M10,677.3594 L74.4429,677.3594 L74.4429,684.4922 L64.4429,694.4922 L10,694.4922 L10,677.3594" fill="#EEEEEE" style="stroke:#000000;stroke-width:1.5;"/><rect fill="none" height="1105.3906" style="stroke:#000000;stroke-width:1.5;" width="505.6147" x="10" y="677.3594"/><text fill="#000000" font-family="sans-serif" font-size="13" font-weight="bold" lengthAdjust="spacing" textLength="19.4429" x="25" y="690.4263">alt</text><text fill="#000000" font-family="sans-serif" font-size="11" font-weight="bold" lengthAdjust="spacing" textLength="105.9932" x="89.4429" y="689.5698">[Mode = Manual]</text><g class="message" data-participant-1="User" data-participant-2="Frontend"><polygon fill="#181818" points="233.1836,711.625,243.1836,715.625,233.1836,719.625,237.1836,715.625" style="stroke:#181818;stroke-width:1;"/><line style="stroke:#181818;stroke-width:1;" x1="38.9551" x2="239.1836" y1="715.625" y2="715.625"/><text fill="#000000" font-family="sans-serif" font-size="13" lengthAdjust="spacing" textLength="81.7261" x="45.9551" y="710.5591">Click "Drive"</text></g><g class="message" data-participant-1="Frontend" data-participant-2="Backend"><line style="stroke:#181818;stroke-width:1;" x1="466.4341" x2="456.4341" y1="744.7578" y2="740.7578"/><line style="stroke:#181818;stroke-width:1;" x1="466.4341" x2="456.4341" y1="744.7578" y2="748.7578"/><line style="stroke:#181818;stroke-width:1;" x1="245.1836" x2="467.4341" y1="744.7578" y2="744.7578"/><text fill="#000000" font-family="sans-serif" font-size="13" lengthAdjust="spacing" textLength="104.4316" x="252.1836" y="739.6919">Send drive:start</text></g><g class="message" data-participant-1="User" data-participant-2="Frontend"><polygon fill="#181818" points="233.1836,769.8906,243.1836,773.8906,233.1836,777.8906,237.1836,773.8906" style="stroke:#181818;stroke-width:1;"/><line style="stroke:#181818;stroke-width:1;" x1="38.9551" x2="239.1836" y1="773.8906" y2="773.8906"/><text fill="#000000" font-family="sans-serif" font-size="13" lengthAdjust="spacing" textLength="134.9131" x="45.9551" y="768.8247">Click "Change Color"</text></g><g class="message" data-participant-1="Frontend" data-participant-2="User"><polygon fill="#181818" points="49.9551,799.0234,39.9551,803.0234,49.9551,807.0234,45.9551,803.0234" style="stroke:#181818;stroke-width:1;"/><line style="stroke:#181818;stroke-width:1;" x1="43.9551" x2="244.1836" y1="803.0234" y2="803.0234"/><text fill="#000000" font-family="sans-serif" font-size="13" lengthAdjust="spacing" textLength="107.25" x="55.9551" y="797.9575">Select new color</text></g><g class="message" data-participant-1="User" data-participant-2="Frontend"><polygon fill="#181818" points="233.1836,828.1563,243.1836,832.1563,233.1836,836.1563,237.1836,832.1563" style="stroke:#181818;stroke-width:1;"/><line style="stroke:#181818;stroke-width:1;" x1="38.9551" x2="239.1836" y1="832.1563" y2="832.1563"/><text fill="#000000" font-family="sans-serif" font-size="13" lengthAdjust="spacing" textLength="89.6479" x="45.9551" y="827.0903">Activate color</text></g><g class="message" data-participant-1="Frontend" data-participant-2="Backend"><line style="stroke:#181818;stroke-width:1;" x1="466.4341" x2="456.4341" y1="861.2891" y2="857.2891"/><line style="stroke:#181818;stroke-width:1;" x1="466.4341" x2="456.4341" y1="861.2891" y2="865.2891"/><line style="stroke:#181818;stroke-width:1;" x1="245.1836" x2="467.4341" y1="861.2891" y2="861.2891"/><text fill="#000000" font-family="sans-serif" font-size="13" lengthAdjust="spacing" textLength="85.9155" x="252.1836" y="856.2231">Change color</text></g><g class="message" data-participant-1="User" data-participant-2="Frontend"><polygon fill="#181818" points="233.1836,886.4219,243.1836,890.4219,233.1836,894.4219,237.1836,890.4219" style="stroke:#181818;stroke-width:1;"/><line style="stroke:#181818;stroke-width:1;" x1="38.9551" x2="239.1836" y1="890.4219" y2="890.4219"/><text fill="#000000" font-family="sans-serif" font-size="13" lengthAdjust="spacing" textLength="134.2402" x="45.9551" y="885.356">Click control buttons</text></g><g class="message" data-participant-1="User" data-participant-2="Frontend"><polygon fill="#181818" points="233.1836,915.5547,243.1836,919.5547,233.1836,923.5547,237.1836,919.5547" style="stroke:#181818;stroke-width:1;"/><line style="stroke:#181818;stroke-width:1;" x1="38.9551" x2="239.1836" y1="919.5547" y2="919.5547"/><text fill="#000000" font-family="sans-serif" font-size="13" lengthAdjust="spacing" textLength="81.7261" x="45.9551" y="914.4888">Click "Drive"</text></g><g class="message" data-participant-1="Frontend" data-participant-2="Backend"><line style="stroke:#181818;stroke-width:1;" x1="466.4341" x2="456.4341" y1="948.6875" y2="944.6875"/><line style="stroke:#181818;stroke-width:1;" x1="466.4341" x2="456.4341" y1="948.6875" y2="952.6875"/><line style="stroke:#181818;stroke-width:1;" x1="245.1836" x2="467.4341" y1="948.6875" y2="948.6875"/><text fill="#000000" font-family="sans-serif" font-size="13" lengthAdjust="spacing" textLength="102.229" x="252.1836" y="943.6216">Send drive:stop</text></g><g class="message" data-participant-1="Frontend" data-participant-2="Backend"><line style="stroke:#181818;stroke-width:1;" x1="466.4341" x2="456.4341" y1="977.8203" y2="973.8203"/><line style="stroke:#181818;stroke-width:1;" x1="466.4341" x2="456.4341" y1="977.8203" y2="981.8203"/><line style="stroke:#181818;stroke-width:1;" x1="245.1836" x2="467.4341" y1="977.8203" y2="977.8203"/><text fill="#000000" font-family="sans-serif" font-size="13" lengthAdjust="spacing" textLength="131.1616" x="252.1836" y="972.7544">Send drive direction</text></g><line style="stroke:#000000;stroke-width:1;stroke-dasharray:2.0,2.0;" x1="10" x2="515.6147" y1="986.8203" y2="986.8203"/><text fill="#000000" font-family="sans-serif" font-size="11" font-weight="bold" lengthAdjust="spacing" textLength="124.3623" x="15" y="997.0308">[Mode = Automatic]</text><g class="message" data-participant-1="User" data-participant-2="Frontend"><polygon fill="#181818" points="233.1836,1017.7578,243.1836,1021.7578,233.1836,1025.7578,237.1836,1021.7578" style="stroke:#181818;stroke-width:1;"/><line style="stroke:#181818;stroke-width:1;" x1="38.9551" x2="239.1836" y1="1021.7578" y2="1021.7578"/><text fill="#000000" font-family="sans-serif" font-size="13" lengthAdjust="spacing" textLength="131.9551" x="45.9551" y="1016.6919">Click "Define Route"</text></g><g class="message" data-participant-1="Frontend" data-participant-2="Frontend"><line style="stroke:#181818;stroke-width:1;" x1="245.1836" x2="287.1836" y1="1050.8906" y2="1050.8906"/><line style="stroke:#181818;stroke-width:1;" x1="287.1836" x2="287.1836" y1="1050.8906" y2="1063.8906"/><line style="stroke:#181818;stroke-width:1;" x1="246.1836" x2="287.1836" y1="1063.8906" y2="1063.8906"/><polygon fill="#181818" points="256.1836,1059.8906,246.1836,1063.8906,256.1836,1067.8906,252.1836,1063.8906" style="stroke:#181818;stroke-width:1;"/><text fill="#000000" font-family="sans-serif" font-size="13" lengthAdjust="spacing" textLength="209.2505" x="252.1836" y="1045.8247">Redirect to define-route window</text></g><g class="message" data-participant-1="Frontend" data-participant-2="Backend"><line style="stroke:#181818;stroke-width:1;" x1="466.4341" x2="456.4341" y1="1093.0234" y2="1089.0234"/><line style="stroke:#181818;stroke-width:1;" x1="466.4341" x2="456.4341" y1="1093.0234" y2="1097.0234"/><line style="stroke:#181818;stroke-width:1;" x1="245.1836" x2="467.4341" y1="1093.0234" y2="1093.0234"/><text fill="#000000" font-family="sans-serif" font-size="13" lengthAdjust="spacing" textLength="111.522" x="252.1836" y="1087.9575">Get saved routes</text></g><g class="message" data-participant-1="Backend" data-participant-2="Frontend"><line style="stroke:#181818;stroke-width:1;" x1="246.1836" x2="256.1836" y1="1122.1563" y2="1118.1563"/><line style="stroke:#181818;stroke-width:1;" x1="246.1836" x2="256.1836" y1="1122.1563" y2="1126.1563"/><line style="stroke:#181818;stroke-width:1;stroke-dasharray:2.0,2.0;" x1="245.1836" x2="467.4341" y1="1122.1563" y2="1122.1563"/><text fill="#000000" font-family="sans-serif" font-size="13" lengthAdjust="spacing" textLength="132.3042" x="262.1836" y="1117.0903">Return saved routes</text></g><g class="message" data-participant-1="User" data-participant-2="Frontend"><polygon fill="#181818" points="233.1836,1147.2891,243.1836,1151.2891,233.1836,1155.2891,237.1836,1151.2891" style="stroke:#181818;stroke-width:1;"/><line style="stroke:#181818;stroke-width:1;" x1="38.9551" x2="239.1836" y1="1151.2891" y2="1151.2891"/><text fill="#000000" font-family="sans-serif" font-size="13" lengthAdjust="spacing" textLength="93.7295" x="45.9551" y="1146.2231">Enter duration</text></g><g class="message" data-participant-1="User" data-participant-2="Frontend"><polygon fill="#181818" points="233.1836,1176.4219,243.1836,1180.4219,233.1836,1184.4219,237.1836,1180.4219" style="stroke:#181818;stroke-width:1;"/><line style="stroke:#181818;stroke-width:1;" x1="38.9551" x2="239.1836" y1="1180.4219" y2="1180.4219"/><text fill="#000000" font-family="sans-serif" font-size="13" lengthAdjust="spacing" textLength="78.2983" x="45.9551" y="1175.356">Enter speed</text></g><g class="message" data-participant-1="User" data-participant-2="Frontend"><polygon fill="#181818" points="233.1836,1205.5547,243.1836,1209.5547,233.1836,1213.5547,237.1836,1209.5547" style="stroke:#181818;stroke-width:1;"/><line style="stroke:#181818;stroke-width:1;" x1="38.9551" x2="239.1836" y1="1209.5547" y2="1209.5547"/><text fill="#000000" font-family="sans-serif" font-size="13" lengthAdjust="spacing" textLength="96.2813" x="45.9551" y="1204.4888">Enter direction</text></g><g class="message" data-participant-1="User" data-participant-2="Frontend"><polygon fill="#181818" points="233.1836,1234.6875,243.1836,1238.6875,233.1836,1242.6875,237.1836,1238.6875" style="stroke:#181818;stroke-width:1;"/><line style="stroke:#181818;stroke-width:1;" x1="38.9551" x2="239.1836" y1="1238.6875" y2="1238.6875"/><text fill="#000000" font-family="sans-serif" font-size="13" lengthAdjust="spacing" textLength="127.0103" x="45.9551" y="1233.6216">Enter color settings</text></g><g class="message" data-participant-1="User" data-participant-2="Frontend"><polygon fill="#181818" points="233.1836,1263.8203,243.1836,1267.8203,233.1836,1271.8203,237.1836,1267.8203" style="stroke:#181818;stroke-width:1;"/><line style="stroke:#181818;stroke-width:1;" x1="38.9551" x2="239.1836" y1="1267.8203" y2="1267.8203"/><text fill="#000000" font-family="sans-serif" font-size="13" lengthAdjust="spacing" textLength="182.2285" x="45.9551" y="1262.7544">Click "Add New Checkpoint"</text></g><g class="message" data-participant-1="User" data-participant-2="Frontend"><polygon fill="#181818" points="233.1836,1292.9531,243.1836,1296.9531,233.1836,1300.9531,237.1836,1296.9531" style="stroke:#181818;stroke-width:1;"/><line style="stroke:#181818;stroke-width:1;" x1="38.9551" x2="239.1836" y1="1296.9531" y2="1296.9531"/><text fill="#000000" font-family="sans-serif" font-size="13" lengthAdjust="spacing" textLength="121.4307" x="45.9551" y="1291.8872">Click "Save Route"</text></g><g class="message" data-participant-1="Frontend" data-participant-2="Frontend"><line style="stroke:#181818;stroke-width:1;" x1="245.1836" x2="287.1836" y1="1326.0859" y2="1326.0859"/><line style="stroke:#181818;stroke-width:1;" x1="287.1836" x2="287.1836" y1="1326.0859" y2="1339.0859"/><line style="stroke:#181818;stroke-width:1;" x1="246.1836" x2="287.1836" y1="1339.0859" y2="1339.0859"/><polygon fill="#181818" points="256.1836,1335.0859,246.1836,1339.0859,256.1836,1343.0859,252.1836,1339.0859" style="stroke:#181818;stroke-width:1;"/><text fill="#000000" font-family="sans-serif" font-size="13" lengthAdjust="spacing" textLength="178.1406" x="252.1836" y="1321.02">Redirect to automatic page</text></g><g class="message" data-participant-1="Frontend" data-participant-2="Backend"><line style="stroke:#181818;stroke-width:1;" x1="466.4341" x2="456.4341" y1="1368.2188" y2="1364.2188"/><line style="stroke:#181818;stroke-width:1;" x1="466.4341" x2="456.4341" y1="1368.2188" y2="1372.2188"/><line style="stroke:#181818;stroke-width:1;" x1="245.1836" x2="467.4341" y1="1368.2188" y2="1368.2188"/><text fill="#000000" font-family="sans-serif" font-size="13" lengthAdjust="spacing" textLength="155.5684" x="252.1836" y="1363.1528">Send new defined route</text></g><g class="message" data-participant-1="User" data-participant-2="Frontend"><polygon fill="#181818" points="233.1836,1393.3516,243.1836,1397.3516,233.1836,1401.3516,237.1836,1397.3516" style="stroke:#181818;stroke-width:1;"/><line style="stroke:#181818;stroke-width:1;" x1="38.9551" x2="239.1836" y1="1397.3516" y2="1397.3516"/><text fill="#000000" font-family="sans-serif" font-size="13" lengthAdjust="spacing" textLength="78.8696" x="45.9551" y="1392.2856">Select route</text></g><g class="message" data-participant-1="Frontend" data-participant-2="Backend"><line style="stroke:#181818;stroke-width:1;" x1="466.4341" x2="456.4341" y1="1426.4844" y2="1422.4844"/><line style="stroke:#181818;stroke-width:1;" x1="466.4341" x2="456.4341" y1="1426.4844" y2="1430.4844"/><line style="stroke:#181818;stroke-width:1;" x1="245.1836" x2="467.4341" y1="1426.4844" y2="1426.4844"/><text fill="#000000" font-family="sans-serif" font-size="13" lengthAdjust="spacing" textLength="130.5142" x="252.1836" y="1421.4185">Send selected route</text></g><g class="message" data-participant-1="User" data-participant-2="Frontend"><polygon fill="#181818" points="233.1836,1451.6172,243.1836,1455.6172,233.1836,1459.6172,237.1836,1455.6172" style="stroke:#181818;stroke-width:1;"/><line style="stroke:#181818;stroke-width:1;" x1="38.9551" x2="239.1836" y1="1455.6172" y2="1455.6172"/><text fill="#000000" font-family="sans-serif" font-size="13" lengthAdjust="spacing" textLength="78.8252" x="45.9551" y="1450.5513">Click "Start"</text></g><g class="message" data-participant-1="Frontend" data-participant-2="Backend"><line style="stroke:#181818;stroke-width:1;" x1="466.4341" x2="456.4341" y1="1484.75" y2="1480.75"/><line style="stroke:#181818;stroke-width:1;" x1="466.4341" x2="456.4341" y1="1484.75" y2="1488.75"/><line style="stroke:#181818;stroke-width:1;" x1="245.1836" x2="467.4341" y1="1484.75" y2="1484.75"/><text fill="#000000" font-family="sans-serif" font-size="13" lengthAdjust="spacing" textLength="67.1519" x="252.1836" y="1479.6841">Send start</text></g><g class="message" data-participant-1="User" data-participant-2="Frontend"><polygon fill="#181818" points="233.1836,1509.8828,243.1836,1513.8828,233.1836,1517.8828,237.1836,1513.8828" style="stroke:#181818;stroke-width:1;"/><line style="stroke:#181818;stroke-width:1;" x1="38.9551" x2="239.1836" y1="1513.8828" y2="1513.8828"/><text fill="#000000" font-family="sans-serif" font-size="13" lengthAdjust="spacing" textLength="76.6226" x="45.9551" y="1508.8169">Click "Stop"</text></g><g class="message" data-participant-1="Frontend" data-participant-2="Backend"><line style="stroke:#181818;stroke-width:1;" x1="466.4341" x2="456.4341" y1="1543.0156" y2="1539.0156"/><line style="stroke:#181818;stroke-width:1;" x1="466.4341" x2="456.4341" y1="1543.0156" y2="1547.0156"/><line style="stroke:#181818;stroke-width:1;" x1="245.1836" x2="467.4341" y1="1543.0156" y2="1543.0156"/><text fill="#000000" font-family="sans-serif" font-size="13" lengthAdjust="spacing" textLength="64.9492" x="252.1836" y="1537.9497">Send stop</text></g><line style="stroke:#000000;stroke-width:1;stroke-dasharray:2.0,2.0;" x1="10" x2="515.6147" y1="1552.0156" y2="1552.0156"/><text fill="#000000" font-family="sans-serif" font-size="11" font-weight="bold" lengthAdjust="spacing" textLength="87.0117" x="15" y="1562.2261">[Mode = Map]</text><g class="message" data-participant-1="User" data-participant-2="Frontend"><polygon fill="#181818" points="233.1836,1582.9531,243.1836,1586.9531,233.1836,1590.9531,237.1836,1586.9531" style="stroke:#181818;stroke-width:1;"/><line style="stroke:#181818;stroke-width:1;" x1="38.9551" x2="239.1836" y1="1586.9531" y2="1586.9531"/><text fill="#000000" font-family="sans-serif" font-size="13" lengthAdjust="spacing" textLength="78.8252" x="45.9551" y="1581.8872">Click "Start"</text></g><g class="message" data-participant-1="Frontend" data-participant-2="Backend"><line style="stroke:#181818;stroke-width:1;" x1="466.4341" x2="456.4341" y1="1616.0859" y2="1612.0859"/><line style="stroke:#181818;stroke-width:1;" x1="466.4341" x2="456.4341" y1="1616.0859" y2="1620.0859"/><line style="stroke:#181818;stroke-width:1;" x1="245.1836" x2="467.4341" y1="1616.0859" y2="1616.0859"/><text fill="#000000" font-family="sans-serif" font-size="13" lengthAdjust="spacing" textLength="104.4316" x="252.1836" y="1611.02">Send drive:start</text></g><g class="message" data-participant-1="User" data-participant-2="Frontend"><polygon fill="#181818" points="233.1836,1641.2188,243.1836,1645.2188,233.1836,1649.2188,237.1836,1645.2188" style="stroke:#181818;stroke-width:1;"/><line style="stroke:#181818;stroke-width:1;" x1="38.9551" x2="239.1836" y1="1645.2188" y2="1645.2188"/><text fill="#000000" font-family="sans-serif" font-size="13" lengthAdjust="spacing" textLength="76.6226" x="45.9551" y="1640.1528">Click "Stop"</text></g><g class="message" data-participant-1="Frontend" data-participant-2="Backend"><line style="stroke:#181818;stroke-width:1;" x1="466.4341" x2="456.4341" y1="1674.3516" y2="1670.3516"/><line style="stroke:#181818;stroke-width:1;" x1="466.4341" x2="456.4341" y1="1674.3516" y2="1678.3516"/><line style="stroke:#181818;stroke-width:1;" x1="245.1836" x2="467.4341" y1="1674.3516" y2="1674.3516"/><text fill="#000000" font-family="sans-serif" font-size="13" lengthAdjust="spacing" textLength="102.229" x="252.1836" y="1669.2856">Send drive:stop</text></g><g class="message" data-participant-1="Backend" data-participant-2="Frontend"><line style="stroke:#181818;stroke-width:1;" x1="246.1836" x2="256.1836" y1="1703.4844" y2="1699.4844"/><line style="stroke:#181818;stroke-width:1;" x1="246.1836" x2="256.1836" y1="1703.4844" y2="1707.4844"/><line style="stroke:#181818;stroke-width:1;stroke-dasharray:2.0,2.0;" x1="245.1836" x2="467.4341" y1="1703.4844" y2="1703.4844"/><text fill="#000000" font-family="sans-serif" font-size="13" lengthAdjust="spacing" textLength="151.8232" x="262.1836" y="1698.4185">Return DiscoveryPoints</text></g><g class="message" data-participant-1="Frontend" data-participant-2="Frontend"><line style="stroke:#181818;stroke-width:1;" x1="245.1836" x2="287.1836" y1="1732.6172" y2="1732.6172"/><line style="stroke:#181818;stroke-width:1;" x1="287.1836" x2="287.1836" y1="1732.6172" y2="1745.6172"/><line style="stroke:#181818;stroke-width:1;" x1="246.1836" x2="287.1836" y1="1745.6172" y2="1745.6172"/><polygon fill="#181818" points="256.1836,1741.6172,246.1836,1745.6172,256.1836,1749.6172,252.1836,1745.6172" style="stroke:#181818;stroke-width:1;"/><text fill="#000000" font-family="sans-serif" font-size="13" lengthAdjust="spacing" textLength="173.0054" x="252.1836" y="1727.5513">Redirect to map generator</text></g><g class="message" data-participant-1="Frontend" data-participant-2="User"><polygon fill="#181818" points="49.9551,1770.75,39.9551,1774.75,49.9551,1778.75,45.9551,1774.75" style="stroke:#181818;stroke-width:1;"/><line style="stroke:#181818;stroke-width:1;" x1="43.9551" x2="244.1836" y1="1774.75" y2="1774.75"/><text fill="#000000" font-family="sans-serif" font-size="13" lengthAdjust="spacing" textLength="68.0913" x="55.9551" y="1769.6841">Show map</text></g><!--SRC=[hLNHZjem47ptLwpoVZ-0n4cKwrMLIdK2zGFsuWKiZ1tP3gX_ttNiq4J40QbzGeh7uzcTsGNhO1tyykH4WoweMZLe0hmxQm8PEVhu1UjJ_2QMIzYHzyeQM2w5YBVXvVLsQG5V-TV1zmz0AHqZYn2VQGoUQGAqrge-GRKbpogfVxGIeeSm_BLJlu1tfJKe0uvgOh4ziyI0PUOVzg3k-7AT2twFluo8yb7akg7MrXYg0mGBcqyRX40TRls9j-22Mab0lbSdR3pnRLqpQD_glwpnzO76IV10wW2x9QbSLi6F16SrdAqaGThJM8qoIG_xFf2pHwL9FY4b0uSoaW6xexr2TOUiH9-P3UjXAJeVJqSddIVjqwwiZsWET8SeDCDtV2GJllEcqy5oqBIeozbuS-f2rLmqP4GiVE0P4MMUh7TjjNNLLDzInOQkx0TZfgXMtB8B1ig8sSOKIPAUFXsVRGZM-FzHlsqUeY0vmhwB5CbimgeDzeoyOcPqq5uPWgrjmrXEmN7PuLzSnCDL6MclfG7_HhmeyCBfwD2-5FyjXTQPCRIuqsJhi2kqkFGQuW4gNhyrgeJe3EPWXw3CmSyaRoKb_EHOhOzKdnghJAZAu1qNztoJiVSD6ZpGx0ADmKwUvDwLfpuTpoxZFCqbehwOE9EpsKrJEqDWcmVtEVMZA6-m-HT1posJXxe6C_aWpM_Ar_P2xlT7J8P_mlGpDd0WGvplyH8Q_WCmA6xyFm00]--></g></svg>